<?xml version="1.0" standalone="no"?>
<!DOCTYPE svg PUBLIC "-//W3C//DTD SVG 20010904//EN"
 "http://www.w3.org/TR/2001/REC-SVG-20010904/DTD/svg10.dtd">
<svg version="1.0" xmlns="http://www.w3.org/2000/svg"
 width="200.000000pt" height="200.000000pt" viewBox="0 0 200.000000 200.000000"
 preserveAspectRatio="xMidYMid meet">

<g transform="translate(0.000000,200.000000) scale(0.100000,-0.100000)"
fill="#000000" stroke="none">
<path d="M23 1788 c-19 -9 -23 -19 -23 -60 0 -49 13 -61 38 -36 9 9 12 9 12 1
0 -7 -4 -14 -10 -18 -5 -3 -7 -12 -3 -20 3 -9 -1 -15 -11 -15 -9 0 -16 -3 -16
-7 0 -5 -3 -19 -6 -33 l-5 -25 15 27 c11 18 22 25 35 21 10 -3 22 0 25 6 4 6
0 11 -8 11 -19 0 -20 9 -1 33 7 11 11 25 8 33 -12 32 16 11 48 -36 33 -49 48
-57 57 -30 3 8 0 10 -7 5 -9 -5 -9 -1 1 14 11 18 10 23 -7 36 -11 8 -30 18
-43 21 -19 5 -22 11 -18 29 13 51 -25 70 -81 43z"/>
<path d="M1566 1771 c-10 -15 4 -39 26 -44 17 -5 18 -8 7 -20 -8 -8 -18 -12
-24 -9 -5 2 -4 -1 3 -9 6 -7 12 -21 12 -31 0 -30 27 -20 34 13 6 31 7 31 53
25 99 -12 123 21 43 62 -45 23 -143 31 -154 13z m114 -11 c0 -5 -2 -10 -4 -10
-3 0 -8 5 -11 10 -3 6 -1 10 4 10 6 0 11 -4 11 -10z"/>
<path d="M1650 1651 c0 -14 9 -25 24 -31 13 -5 26 -15 29 -22 3 -9 13 -4 32
17 24 26 26 30 11 33 -9 2 -24 -2 -32 -9 -12 -10 -19 -8 -39 11 l-25 23 0 -22z"/>
<path d="M40 1550 c0 -5 5 -10 11 -10 5 0 7 5 4 10 -3 6 -8 10 -11 10 -2 0 -4
-4 -4 -10z"/>
<path d="M1625 1550 c3 -5 8 -10 11 -10 2 0 4 5 4 10 0 6 -5 10 -11 10 -5 0
-7 -4 -4 -10z"/>
<path d="M1700 1550 c0 -5 5 -10 10 -10 6 0 10 5 10 10 0 6 -4 10 -10 10 -5 0
-10 -4 -10 -10z"/>
<path d="M53 1388 c-8 -14 -5 -686 3 -700 3 -4 32 -8 64 -8 l60 0 2 217 3 216
22 -54 c11 -30 33 -85 47 -124 47 -124 53 -135 80 -135 37 0 85 21 66 29 -10
4 -16 22 -17 51 -1 25 -10 63 -19 85 -9 22 -22 56 -29 75 -24 63 -116 294
-131 328 -15 31 -16 32 -79 32 -40 0 -67 -5 -72 -12z"/>
<path d="M1580 1396 c0 -3 4 -14 9 -24 5 -9 18 -35 27 -57 l18 -40 83 4 c81 3
83 2 113 -27 38 -39 42 -98 8 -137 -20 -22 -34 -26 -103 -32 -43 -3 -72 -9
-64 -12 9 -3 15 -15 13 -26 -12 -75 -16 -70 66 -73 91 -4 139 9 185 49 39 35
55 80 55 159 0 107 -23 151 -100 191 -39 20 -63 24 -177 27 -73 3 -133 1 -133
-2z"/>
<path d="M1620 1256 c0 -2 7 -6 15 -10 8 -3 15 -1 15 4 0 6 -7 10 -15 10 -8 0
-15 -2 -15 -4z"/>
<path d="M1634 805 c3 -8 -2 -18 -10 -23 -8 -4 -16 -22 -17 -40 -1 -18 -7 -32
-13 -32 -7 0 -15 -7 -18 -16 -5 -12 1 -15 32 -12 l37 3 3 68 c2 46 -1 67 -9
67 -6 0 -9 -7 -5 -15z"/>
<path d="M820 640 c0 -5 13 -8 28 -6 25 3 28 0 24 -21 -2 -12 -9 -23 -15 -23
-6 0 -7 -3 -4 -6 10 -10 37 16 37 36 0 13 7 16 28 13 23 -3 24 -2 7 6 -27 13
-105 14 -105 1z"/>
<path d="M1140 640 c-12 -7 -10 -9 7 -7 12 0 19 5 17 9 -6 10 -6 10 -24 -2z"/>
<path d="M242 610 c-7 -11 -8 -20 -3 -20 9 0 24 30 18 36 -1 2 -8 -6 -15 -16z"/>
<path d="M116 501 c-3 -5 2 -15 12 -22 15 -13 16 -12 4 3 -10 13 -10 17 0 21
9 4 9 6 1 6 -6 1 -14 -3 -17 -8z"/>
<path d="M210 481 c0 -5 -10 -11 -22 -13 -15 -2 -22 -9 -22 -21 1 -9 -2 -17
-6 -17 -4 0 -10 -6 -13 -14 -4 -10 0 -12 14 -9 10 3 19 13 20 22 0 12 2 11 9
-4 5 -11 9 -14 9 -7 1 7 5 11 10 8 14 -9 63 12 56 23 -3 5 -1 12 5 16 5 3 10
1 10 -5 0 -6 5 -8 11 -4 8 5 6 10 -6 16 -11 7 -21 6 -28 -1 -6 -6 -18 -11 -26
-10 -11 0 -12 2 -3 6 6 2 10 9 6 14 -7 12 -24 12 -24 0z"/>
<path d="M92 458 c6 -16 48 -23 48 -8 0 6 -4 9 -9 5 -5 -3 -12 -1 -16 5 -9 14
-27 12 -23 -2z"/>
<path d="M58 452 c-17 -7 -17 -8 1 -19 17 -11 20 -10 18 7 -1 11 -1 20 -2 19
0 0 -8 -4 -17 -7z"/>
<path d="M73 416 c-33 -15 -28 -22 17 -22 44 0 50 6 23 21 -12 7 -25 7 -40 1z"/>
<path d="M55 346 c31 -26 51 -34 40 -16 -3 6 -21 17 -38 26 l-32 16 30 -26z"/>
<path d="M15 347 c5 -12 65 -53 65 -44 0 3 -16 17 -35 31 -19 15 -32 21 -30
13z"/>
<path d="M19 306 c14 -14 29 -26 34 -26 13 0 -12 29 -37 42 -19 10 -18 8 3
-16z"/>
<path d="M0 292 c0 -5 7 -15 15 -22 8 -7 15 -8 15 -2 0 5 -7 15 -15 22 -8 7
-15 8 -15 2z"/>
</g>
</svg>
